<?xml version="1.0" encoding="UTF-8" standalone="no"?>
<svg
   id="Layer_1"
   data-name="Layer 1"
   viewBox="0 0 1536 1536"
   version="1.1"
   sodipodi:docname="onlysail_icon_rounded.svg"
   inkscape:export-filename="/home/steadyjaw/Documents/icon-1536x1536.png"
   inkscape:export-xdpi="96"
   inkscape:export-ydpi="96"
   width="1536"
   height="1536"
   inkscape:version="1.1 (c68e22c387, 2021-05-23)"
   xmlns:inkscape="http://www.inkscape.org/namespaces/inkscape"
   xmlns:sodipodi="http://sodipodi.sourceforge.net/DTD/sodipodi-0.dtd"
   xmlns="http://www.w3.org/2000/svg"
   xmlns:svg="http://www.w3.org/2000/svg"
   xmlns:rdf="http://www.w3.org/1999/02/22-rdf-syntax-ns#"
   xmlns:cc="http://creativecommons.org/ns#"
   xmlns:dc="http://purl.org/dc/elements/1.1/">
  <sodipodi:namedview
     id="namedview27"
     pagecolor="#ffffff"
     bordercolor="#666666"
     borderopacity="1.0"
     inkscape:pageshadow="2"
     inkscape:pageopacity="0.0"
     inkscape:pagecheckerboard="true"
     showgrid="false"
     fit-margin-top="0"
     fit-margin-left="0"
     fit-margin-right="0"
     fit-margin-bottom="0"
     inkscape:zoom="0.27739694"
     inkscape:cx="1265.3348"
     inkscape:cy="1330.2237"
     inkscape:window-width="1920"
     inkscape:window-height="1011"
     inkscape:window-x="0"
     inkscape:window-y="32"
     inkscape:window-maximized="1"
     inkscape:current-layer="Layer_1"
     showguides="false" />
  <defs
     id="defs9">
    <style
       id="style2">.cls-1{fill:#00aff0;}.cls-2{opacity:0.1;}.cls-3{fill:url(#radial-gradient);}.cls-4,.cls-5{fill:#fff;}.cls-4{fill-rule:evenodd;}</style>
    <radialGradient
       id="radial-gradient"
       cx="1276.45"
       cy="19.719999"
       r="2113.25"
       gradientTransform="translate(-1260)"
       gradientUnits="userSpaceOnUse">
      <stop
         offset="0"
         stop-color="#fff"
         id="stop4" />
      <stop
         offset="1"
         stop-color="#fff"
         stop-opacity="0"
         id="stop6" />
    </radialGradient>
    <style
       id="style1640">.a{fill:#00aeef;}.b,.c{fill:#fff;}.b{opacity:0.8;}</style>
  </defs>
  <title
     id="title11">icon-1536x1536</title>
  <g
     id="g1839">
    <rect
       class="a"
       width="1536"
       height="1536"
       rx="192"
       id="rect1644"
       x="0.31699824"
       y="0.510005"
       style="stroke-width:3.84" />
    <g
       id="nly">
      <path
         class="cls-4"
         d="m 764.24,245.11 c -286,0 -517.82,235.78 -517.82,526.63 0,290.85 231.84,526.62 517.82,526.62 285.98,0 517.82,-235.78 517.82,-526.62 0,-290.84 -231.84,-526.63 -517.82,-526.63 z m 0,998.3 c -256.14,0 -463.79,-211.18 -463.79,-471.67 0,-260.49 207.65,-471.68 463.79,-471.68 256.14,0 463.76,211.18 463.76,471.68 0,260.5 -207.62,471.67 -463.76,471.67 z"
         id="path19" />
    </g>
    <g
       id="Shape_1"
       data-name="Shape 1">
      <g
         id="g227"
         transform="translate(460.61428,464.81897)"
         style="fill:#ffffff;fill-opacity:1">
        <g
           id="Ebene_2"
           style="fill:#ffffff;fill-opacity:1">
	<g
   id="g201"
   style="fill:#ffffff;fill-opacity:1">
		<path
   class="st0"
   d="M 382.29,142.98"
   id="path189"
   style="fill:#ffffff;fill-opacity:1" />

		<path
   class="st1"
   d="M 382.29,142.98 132.98,522.82 0,522.68 344.3,0 v 0 c 7.88,49.06 20.9,97.68 37.99,142.98"
   id="path191"
   style="fill:#ffffff;fill-opacity:1" />

		<path
   class="st2"
   d="M 413.28,213.54 208.5,522.92 341.44,523.11 476.47,316.78 v 0 C 452.69,284.29 431.53,249.77 413.28,213.54 v 0"
   id="path193"
   style="fill:#ffffff;fill-opacity:1" />

		<path
   class="st3"
   d="M 599.38,447.69"
   id="path195"
   style="fill:#ffffff;fill-opacity:1" />

		<path
   class="st3"
   d="M 518.6,369.16"
   id="path197"
   style="fill:#ffffff;fill-opacity:1" />

		<path
   class="st1"
   d="M 599.38,447.69 550.13,523.11 417,522.82 518.6,369.15 v 0 c 24.88,28.2 51.89,54.46 80.78,78.54 z"
   id="path199"
   style="fill:#ffffff;fill-opacity:1" />

	</g>

</g>
        <g
           id="Ebene_1"
           class="st4"
           style="fill:#ffffff;fill-opacity:1">
	<path
   class="st5"
   d="m -45.42,426.29 c 0.34,0.34 97.62,1.14 107.04,0.94 0.94,-0.07 1.75,-0.74 2.29,-2.08 0.47,-1.14 1.08,-2.02 1.41,-2.02 0.33,0 0.61,-0.34 0.61,-0.67 0,-0.81 2.76,-4.91 3.56,-5.24 0.27,-0.13 0.47,-0.61 0.47,-1.08 0,-0.74 0.61,-1.61 3.29,-4.84 0.34,-0.47 0.47,-1.01 0.27,-1.21 -0.27,-0.2 -0.07,-0.4 0.34,-0.4 0.47,0 0.81,-0.47 0.81,-1.01 0,-0.47 0.47,-1.21 1.08,-1.55 0.61,-0.34 1.08,-0.87 1.08,-1.21 0.07,-0.54 3.09,-5.58 3.9,-6.32 0.2,-0.2 0.94,-1.41 1.61,-2.69 0.74,-1.28 1.48,-2.49 1.68,-2.69 0.61,-0.54 3.43,-4.64 3.43,-4.98 0,-0.2 1.95,-3.23 4.37,-6.72 2.42,-3.49 4.37,-6.66 4.37,-7.06 0,-0.34 0.2,-0.74 0.54,-0.87 0.54,-0.27 3.5,-4.37 3.5,-4.91 0,-0.2 0.34,-0.74 0.74,-1.21 0.34,-0.47 2.22,-3.23 4.17,-6.19 1.88,-2.96 3.56,-5.51 3.83,-5.71 0.2,-0.2 0.74,-1.14 1.28,-2.15 0.54,-1.01 1.48,-2.49 2.22,-3.16 0.67,-0.74 1.21,-1.55 1.21,-1.68 0,-0.61 12.98,-20.17 13.65,-20.64 0.34,-0.2 0.47,-0.61 0.34,-0.81 -0.07,-0.27 0.27,-1.01 0.87,-1.68 0.61,-0.67 1.61,-2.22 2.35,-3.36 0.67,-1.21 1.48,-2.15 1.82,-2.15 0.27,0 0.4,-0.27 0.13,-0.61 -0.2,-0.34 0.07,-1.01 0.54,-1.55 1.48,-1.48 5.18,-7.13 5.18,-7.87 0,-0.4 0.34,-0.74 0.67,-0.74 0.4,0 0.67,-0.47 0.67,-1.01 0,-0.54 0.34,-1.01 0.67,-1.01 0.4,0 0.67,-0.4 0.67,-0.94 0,-0.54 0.27,-1.08 0.54,-1.21 0.27,-0.13 1.28,-1.41 2.15,-2.89 0.87,-1.48 1.88,-3.03 2.15,-3.36 1.01,-1.21 9.28,-13.92 9.28,-14.19 0,-0.34 4.24,-6.45 5.18,-7.46 0.4,-0.47 1.01,-1.48 1.21,-2.22 0.2,-0.74 0.67,-1.34 1.01,-1.34 0.27,0 0.67,-0.54 0.94,-1.21 0.4,-1.14 1.82,-3.56 2.49,-4.17 0.2,-0.2 2.15,-3.16 4.37,-6.66 2.15,-3.43 4.5,-6.86 5.11,-7.53 0.67,-0.74 1.08,-1.28 0.87,-1.28 -0.2,0 0.74,-1.48 2.02,-3.36 1.28,-1.82 2.35,-3.63 2.35,-4.03 0,-0.34 0.2,-0.67 0.54,-0.67 0.27,0 1.21,-1.34 2.15,-3.03 0.94,-1.68 1.88,-3.03 2.15,-3.03 0.34,0 0.54,-0.4 0.54,-0.87 0,-0.54 0.61,-1.48 1.34,-2.15 0.74,-0.67 1.34,-1.61 1.34,-2.15 0,-0.47 0.34,-0.87 0.67,-0.87 0.4,0 0.67,-0.34 0.67,-0.67 0,-0.74 3.16,-5.85 4.5,-7.26 0.4,-0.4 1.01,-1.41 1.21,-2.15 0.2,-0.74 0.67,-1.34 0.94,-1.34 0.34,0 0.94,-0.87 1.41,-2.02 0.47,-1.14 1.08,-2.02 1.34,-2.02 0.27,0 0.87,-0.87 1.34,-2.02 0.47,-1.14 1.08,-2.02 1.34,-2.02 0.27,0 0.87,-0.94 1.34,-2.02 0.47,-1.14 1.14,-2.02 1.48,-2.02 0.34,0 0.4,-0.34 0.2,-0.67 -0.2,-0.4 -0.2,-0.67 0.13,-0.67 0.27,0 1.41,-1.55 2.55,-3.36 1.08,-1.88 2.22,-3.36 2.55,-3.36 0.27,0 0.4,-0.27 0.2,-0.61 -0.2,-0.27 0.2,-1.08 0.94,-1.75 0.74,-0.67 1.34,-1.55 1.34,-1.95 0,-0.4 0.74,-1.61 1.68,-2.62 0.94,-1.01 1.55,-1.82 1.41,-1.82 -0.34,0 8.87,-14.19 10.35,-15.93 0.34,-0.47 0.67,-1.14 0.67,-1.55 0,-0.34 0.34,-0.67 0.67,-0.67 0.4,0 0.67,-0.47 0.67,-1.01 0,-0.54 0.34,-1.01 0.67,-1.01 0.4,0 0.67,-0.34 0.67,-0.67 0,-0.4 1.08,-2.22 2.35,-4.03 1.27,-1.81 2.35,-3.5 2.35,-3.7 0,-0.2 0.61,-1.01 1.34,-1.82 0.74,-0.81 1.34,-1.88 1.34,-2.35 0,-0.47 0.34,-0.87 0.74,-0.87 0.34,0 0.54,-0.27 0.34,-0.54 -0.2,-0.34 0.27,-0.94 0.94,-1.48 0.67,-0.54 1.14,-1.14 1.01,-1.34 -0.2,-0.27 0.27,-1.01 1.01,-1.68 0.74,-0.67 1.34,-1.48 1.34,-1.75 0,-0.27 2.35,-4.1 5.24,-8.47 2.96,-4.37 8.27,-12.51 11.9,-18.02 3.63,-5.58 6.93,-10.29 7.33,-10.56 0.4,-0.27 0.47,-0.54 0.13,-0.54 -0.34,0 -0.13,-0.54 0.4,-1.21 1.01,-1.21 1.08,-1.75 0.2,-3.83 -2.89,-6.93 -5.04,-12.77 -5.04,-13.51 0,-0.54 -0.27,-0.94 -0.67,-0.94 -0.34,0 -0.61,-0.2 -0.54,-0.54 0.2,-0.87 -1.75,-6.52 -2.42,-6.99 -0.4,-0.27 -0.47,-0.67 -0.2,-0.94 0.27,-0.27 0.2,-0.81 -0.13,-1.21 -0.47,-0.67 -3.97,-10.62 -4.37,-12.71 -0.13,-0.47 -0.4,-1.34 -0.61,-2.02 -0.27,-0.61 -0.67,-1.68 -0.94,-2.35 -0.2,-0.61 -0.47,-1.61 -0.61,-2.15 -0.27,-1.34 -1.61,-5.98 -2.42,-8.14 -0.34,-0.94 -0.67,-2.35 -0.74,-3.16 -0.07,-0.81 -0.27,-1.48 -0.47,-1.48 -0.27,0 -0.47,-0.4 -0.54,-0.87 0,-0.4 -0.2,-1.41 -0.4,-2.15 -0.2,-0.74 -1.01,-3.9 -1.68,-7.06 -0.74,-3.16 -1.34,-5.78 -1.41,-5.92 -0.13,-0.07 -0.2,-0.34 -0.27,-0.67 -0.34,-1.34 -1.28,-5.92 -1.41,-6.52 -0.07,-0.4 -0.2,-0.81 -0.27,-1.01 -0.2,-0.4 -0.54,-2.22 -0.94,-5.38 -0.2,-1.28 -0.54,-2.82 -0.74,-3.43 -0.27,-0.61 -0.4,-1.34 -0.34,-1.68 0.07,-0.34 0,-0.74 -0.07,-0.94 -0.27,-0.67 -0.67,-3.09 -0.94,-5.38 -0.13,-1.28 -0.34,-2.35 -0.4,-2.35 -0.13,0 -0.61,-3.36 -0.74,-5.92 -0.07,-1.01 -0.4,-2.02 -0.74,-2.22 -0.34,-0.2 -0.27,-0.81 0.13,-1.28 1.48,-1.75 -0.54,-1.61 -2.08,0.2 v 0 c -0.87,1.01 -2.22,2.96 -2.96,4.37 -0.74,1.48 -1.95,3.29 -2.69,4.1 -0.74,0.81 -1.95,2.62 -2.69,4.03 -0.74,1.34 -1.82,3.03 -2.42,3.63 -0.54,0.61 -1.61,2.22 -2.35,3.5 -1.48,2.69 -1.68,2.96 -3.97,5.78 -0.94,1.21 -1.68,2.35 -1.68,2.55 0,0.47 -6.66,10.56 -7.33,11.16 -0.2,0.2 -1.01,1.41 -1.68,2.69 -0.74,1.28 -1.48,2.49 -1.68,2.69 -0.47,0.4 -8.27,12.03 -8.81,13.11 m 96.56,112.03 c -0.74,1.14 -1.82,2.76 -2.35,3.56 -0.54,0.81 -1.68,2.55 -2.49,3.83 -1.88,2.82 -2.22,3.36 -5.58,8.2 -1.48,2.15 -2.69,4.03 -2.69,4.24 0,0.21 -0.34,0.67 -0.74,1.14 -0.34,0.47 -4.24,6.25 -8.67,12.91 -4.37,6.66 -8.27,12.44 -8.67,12.91 -0.4,0.47 -0.74,0.94 -0.74,1.14 0,0.61 -4.3,6.79 -4.84,6.99 -0.27,0.13 -0.54,0.67 -0.54,1.21 0,0.54 -0.34,0.94 -0.74,0.94 -0.34,0 -0.54,0.27 -0.34,0.61 0.27,0.34 0.2,0.74 -0.07,0.87 -0.81,0.34 -4.91,6.39 -4.91,7.19 0,0.34 -0.54,1.01 -1.14,1.34 -0.67,0.4 -0.94,0.74 -0.67,0.74 0.27,0 -0.07,0.67 -0.87,1.48 -0.74,0.81 -1.34,1.88 -1.34,2.35 0,0.47 -0.2,0.87 -0.47,0.87 -0.34,0 -1.41,1.55 -2.55,3.43 -1.08,1.88 -2.29,3.77 -2.69,4.24 -1.34,1.61 -3.7,5.04 -3.7,5.45 0,0.27 -0.4,0.87 -0.81,1.34 -1.95,2.15 -2.49,2.89 -2.22,3.16 0.13,0.13 -0.47,1.14 -1.34,2.15 -0.94,1.08 -1.68,2.15 -1.68,2.42 0,0.27 -0.61,1.14 -1.34,2.02 -0.73,0.88 -1.34,1.95 -1.34,2.49 0,0.54 -0.27,0.81 -0.61,0.61 -0.34,-0.2 -0.81,0.34 -1.01,1.28 -0.27,0.94 -0.74,1.68 -1.08,1.68 -0.4,0 -0.67,0.34 -0.67,0.67 0,0.81 -2.76,4.91 -3.5,5.24 -0.34,0.13 -0.54,0.54 -0.54,0.81 0,0.81 -4.17,6.99 -4.84,7.26 -0.27,0.13 -0.54,0.54 -0.54,0.94 0,0.74 -4.1,6.79 -4.84,7.13 -0.34,0.13 -0.54,0.54 -0.54,0.87 0,0.94 -4.91,8 -5.58,8 -0.27,0 -0.4,0.27 -0.13,0.61 0.2,0.34 -0.07,1.01 -0.47,1.55 -0.47,0.47 -2.55,3.43 -4.57,6.59 -2.02,3.16 -3.83,5.85 -4.03,6.05 -0.4,0.4 -2.89,4.03 -3.36,5.04 -1.01,1.95 -31.26,47.13 -31.87,47.53 -0.4,0.27 -0.47,0.54 -0.13,0.54 0.34,0 0.07,0.67 -0.67,1.48 -1.61,1.82 -4.77,6.72 -4.84,7.46 0,0.34 -0.74,1.14 -1.55,1.88 -0.81,0.67 -1.21,1.28 -0.94,1.28 0.34,0 -0.13,0.74 -1.01,1.68 -0.88,0.94 -1.28,1.68 -0.94,1.68 0.34,0 0.27,0.27 -0.07,0.54 -0.94,0.67 -3.83,4.77 -4.98,6.99 -0.54,1.08 -1.21,1.88 -1.55,1.88 -0.27,0 -0.54,0.27 -0.54,0.67 0,0.34 -1.01,2.08 -2.22,3.83 -1.28,1.82 -2.49,3.77 -2.69,4.37 -0.27,0.67 -0.74,1.21 -1.14,1.21 -0.34,0 -0.67,0.47 -0.67,1.01 0,0.54 -0.27,1.01 -0.67,1.01 -0.34,0 -0.67,0.27 -0.67,0.61 0,0.4 -2.29,4.03 -5.11,8.14 -2.76,4.17 -4.91,7.66 -4.77,7.87 0.34,0.27 33.68,0.67 83.44,0.87 22.79,0.13 24.14,0.07 25.21,-1.14 1.21,-1.48 2.55,-3.43 3.23,-4.91 0.27,-0.54 1.01,-1.61 1.68,-2.29 0.61,-0.67 1.01,-1.55 0.81,-1.88 -0.2,-0.27 -0.07,-0.54 0.34,-0.54 0.41,0 1.21,-1.01 1.82,-2.22 0.61,-1.14 1.34,-2.29 1.61,-2.49 0.2,-0.2 1.48,-2.08 2.76,-4.24 1.21,-2.08 2.49,-3.83 2.76,-3.83 0.34,0 0.54,-0.47 0.54,-1.01 0,-0.54 0.34,-1.01 0.74,-1.01 0.34,0 0.54,-0.27 0.34,-0.61 -0.27,-0.34 -0.2,-0.74 0.07,-0.87 0.81,-0.34 3.56,-4.44 3.56,-5.24 0,-0.34 0.34,-0.67 0.67,-0.67 0.4,0 0.67,-0.47 0.67,-1.01 0,-0.54 0.27,-1.01 0.54,-1.01 0.34,0 0.94,-0.67 1.41,-1.55 0.4,-0.81 1.34,-2.42 2.08,-3.5 0.74,-1.14 1.68,-2.69 2.08,-3.56 0.47,-0.81 1.08,-1.48 1.41,-1.48 0.27,0 0.54,-0.4 0.54,-0.87 0,-0.47 0.54,-1.48 1.21,-2.22 0.61,-0.67 1.55,-2.08 2.08,-3.09 0.54,-1.01 1.61,-2.55 2.35,-3.36 0.81,-0.81 1.41,-1.68 1.34,-1.88 -0.07,-0.47 6.05,-9.68 6.66,-9.95 0.27,-0.13 0.47,-0.54 0.47,-0.87 0,-0.54 5.85,-9.88 6.72,-10.69 0.2,-0.2 1.41,-2.02 2.69,-4.03 1.28,-2.02 2.62,-3.9 3.03,-4.17 0.34,-0.27 0.4,-0.54 0.13,-0.54 -0.34,0 -0.13,-0.47 0.34,-1.01 2.08,-2.29 2.42,-2.89 2.08,-3.29 -0.27,-0.2 -0.07,-0.4 0.34,-0.4 0.47,0 0.81,-0.4 0.81,-0.94 0,-0.54 0.27,-1.08 0.54,-1.21 0.34,-0.13 1.95,-2.35 3.56,-4.91 1.61,-2.62 3.16,-4.84 3.43,-4.91 0.27,-0.13 0.54,-0.54 0.54,-0.87 0,-0.34 1.08,-2.15 2.35,-3.97 1.28,-1.82 2.35,-3.5 2.35,-3.77 0,-0.2 0.4,-0.74 0.87,-1.28 0.4,-0.47 2.89,-4.17 5.51,-8.2 2.55,-3.97 4.91,-7.4 5.18,-7.46 0.34,-0.13 0.4,-0.54 0.13,-0.87 -0.2,-0.34 0.13,-0.81 0.67,-1.01 0.61,-0.2 1.08,-0.74 1.08,-1.08 0,-0.4 1.08,-2.22 2.35,-3.97 1.28,-1.82 2.35,-3.43 2.35,-3.5 0,-0.27 11.16,-17.28 11.97,-18.29 0.27,-0.4 1.14,-1.75 1.88,-3.03 0.67,-1.28 1.68,-2.62 2.15,-2.89 0.4,-0.27 0.81,-0.87 0.81,-1.21 0,-0.4 0.74,-1.68 1.68,-2.89 0.94,-1.21 1.68,-2.55 1.68,-2.96 0,-0.47 0.27,-0.81 0.54,-0.81 0.34,0 0.94,-0.74 1.34,-1.61 0.61,-1.34 0.34,-2.02 -1.95,-5.04 -1.41,-1.88 -2.35,-3.43 -2.08,-3.43 0.27,0 0.13,-0.27 -0.27,-0.54 -0.87,-0.54 -6.99,-9.48 -6.99,-10.22 0,-0.27 -0.61,-1.01 -1.34,-1.68 -0.74,-0.67 -1.34,-1.61 -1.34,-2.15 0,-0.47 -0.27,-0.87 -0.67,-0.87 -0.34,0 -0.67,-0.4 -0.67,-0.94 0,-0.54 -0.27,-1.08 -0.54,-1.21 -0.54,-0.2 -6.19,-9.01 -6.19,-9.61 0,-0.2 -0.61,-1.01 -1.34,-1.82 -0.74,-0.81 -1.34,-1.88 -1.34,-2.35 0,-0.47 -0.27,-0.87 -0.67,-0.87 -0.34,0 -0.67,-0.27 -0.67,-0.61 0,-0.4 -0.87,-2.02 -2.02,-3.63 -1.08,-1.68 -2.02,-3.36 -2.02,-3.77 0,-0.4 -0.27,-0.74 -0.61,-0.74 -0.34,0 -0.74,-0.54 -0.94,-1.21 -0.4,-1.14 -2.49,-4.84 -3.16,-5.51 -0.2,-0.2 -1.08,-1.68 -1.95,-3.36 -0.94,-1.68 -1.82,-3.16 -2.02,-3.36 -0.27,-0.2 -0.81,-1.08 -1.21,-2.02 -0.47,-0.94 -2.22,-4.1 -3.9,-7.06 -1.75,-2.96 -3.29,-5.92 -3.5,-6.59 -0.2,-0.61 -0.61,-1.14 -0.87,-1.14 -0.54,0 -2.29,-3.97 -2.08,-4.91 0.18,-1.19 -1.1,-0.25 -2.31,1.63 z m 85.19,129.02 c -0.81,1.08 -1.48,2.22 -1.41,2.42 0,0.27 -0.2,0.67 -0.54,0.87 -0.94,0.67 -8.94,12.71 -8.94,13.51 0,0.34 -0.2,0.67 -0.47,0.67 -0.34,0 -1.61,1.82 -2.89,4.03 -1.28,2.21 -2.55,4.03 -2.82,4.03 -0.34,0 -0.54,0.4 -0.54,0.94 0,0.54 -0.2,1.08 -0.47,1.21 -0.74,0.27 -4.24,5.71 -4.24,6.52 0,0.34 -0.47,0.74 -1.01,1.01 -0.54,0.2 -1.01,0.81 -1.01,1.34 0,0.54 -0.2,1.08 -0.54,1.21 -0.27,0.07 -1.55,1.88 -2.82,3.9 -1.28,2.02 -2.49,3.83 -2.69,4.03 -0.2,0.2 -1.14,1.55 -2.02,3.03 -0.87,1.48 -2.02,3.09 -2.42,3.56 -0.47,0.4 -1.08,1.41 -1.28,2.15 -0.2,0.74 -0.74,1.34 -1.14,1.34 -0.4,0 -0.61,0.2 -0.34,0.4 0.2,0.27 0.07,0.81 -0.4,1.28 -0.47,0.47 -1.21,1.41 -1.61,2.08 -0.47,0.74 -2.22,3.36 -3.9,5.85 -1.68,2.55 -3.03,4.91 -3.03,5.24 0,0.34 -0.27,0.61 -0.54,0.61 -0.34,0 -1.01,0.81 -1.55,1.82 -0.54,1.08 -1.14,2.02 -1.34,2.22 -0.2,0.2 -3.36,4.84 -6.99,10.42 -3.63,5.51 -6.86,10.22 -7.13,10.29 -0.34,0.13 -0.47,0.54 -0.2,0.87 0.2,0.34 0,0.61 -0.34,0.61 -0.4,0 -0.74,0.47 -0.74,1.01 0,0.61 -0.47,1.21 -1.01,1.41 -0.54,0.27 -0.81,0.67 -0.61,1.01 0.2,0.34 0,0.61 -0.34,0.61 -0.4,0 -0.74,0.34 -0.74,0.74 0,0.4 -0.54,1.41 -1.14,2.29 -1.41,1.82 -1.41,1.82 -8.2,12.1 -2.96,4.44 -5.71,8.47 -6.12,8.94 -0.54,0.61 0.4,0.81 4.5,0.87 13.31,0.13 60.58,0.54 80.81,0.61 l 22.39,0.13 1.61,-1.88 c 0.87,-1.08 1.55,-2.22 1.61,-2.49 0,-0.27 0.61,-1.14 1.34,-1.95 0.74,-0.81 1.34,-1.88 1.34,-2.35 0,-0.47 0.34,-0.87 0.74,-0.87 0.34,0 0.54,-0.27 0.34,-0.54 -0.2,-0.34 0.27,-0.94 0.94,-1.48 0.67,-0.54 1.14,-1.14 1.01,-1.34 -0.2,-0.27 0.27,-1.01 1.01,-1.68 0.74,-0.67 1.34,-1.55 1.34,-1.88 0,-0.4 0.74,-1.68 1.68,-2.82 0.87,-1.21 1.41,-2.35 1.21,-2.62 -0.27,-0.2 -0.13,-0.4 0.27,-0.4 0.4,0 2.89,-3.5 5.58,-7.73 2.69,-4.24 5.51,-8.34 6.19,-9.08 0.68,-0.74 1.08,-1.34 0.94,-1.34 -0.54,0 7.73,-12.3 8.61,-12.91 0.4,-0.27 0.47,-0.54 0.2,-0.54 -0.34,0 0.07,-0.81 0.81,-1.75 0.81,-1.01 1.41,-2.22 1.41,-2.76 0,-0.81 -3.03,-4.24 -11.56,-13.11 -1.82,-1.82 -3.23,-3.43 -3.23,-3.56 0,-0.13 -0.67,-1.01 -1.48,-1.82 -1.48,-1.48 -6.19,-6.86 -11.36,-12.91 -1.28,-1.41 -2.89,-3.23 -3.63,-4.03 -1.08,-1.14 -4.57,-5.18 -9.41,-10.89 -1.01,-1.21 -4.17,-5.04 -11.43,-14.05 -9.39,-11.56 -8.51,-10.82 -10.26,-8.4 z"
   id="path204"
   style="fill:#ffffff;fill-opacity:1" />

	<line
   class="st6"
   x1="108.71"
   y1="523.10999"
   x2="108.7"
   y2="523.10999"
   id="line206"
   style="fill:#ffffff;fill-opacity:1" />

</g>
      </g>
    </g>
  </g>
  <style
     type="text/css"
     id="style187">
	.st0{fill:#E30613;stroke:#009640;stroke-width:0;stroke-linecap:round;stroke-linejoin:round;}
	.st1{fill:#D41216;}
	.st2{fill:#D41216;stroke:#009640;stroke-width:0;stroke-linecap:round;stroke-linejoin:round;}
	.st3{fill:none;stroke:#009640;stroke-width:0;stroke-linecap:round;stroke-linejoin:round;}
	.st4{display:none;}
	.st5{display:inline;fill:#E73D26;}
	.st6{display:inline;fill:none;}
</style>
  <metadata
     id="metadata1316">
    <rdf:RDF>
      <cc:Work
         rdf:about="">
        <dc:title>icon-1536x1536</dc:title>
      </cc:Work>
    </rdf:RDF>
  </metadata>
</svg>
