<?xml version="1.0" encoding="UTF-8" standalone="no"?>
<svg
   width="127.27557mm"
   height="530.95135mm"
   viewBox="0 0 127.27557 530.95134"
   version="1.1"
   id="svg8"
   inkscape:version="1.1 (c68e22c387, 2021-05-23)"
   sodipodi:docname="sidebar-background.svg"
   inkscape:export-filename="C:\Users\steadyjaw\Desktop\onlysails_.png"
   inkscape:export-xdpi="96"
   inkscape:export-ydpi="96"
   xmlns:inkscape="http://www.inkscape.org/namespaces/inkscape"
   xmlns:sodipodi="http://sodipodi.sourceforge.net/DTD/sodipodi-0.dtd"
   xmlns="http://www.w3.org/2000/svg"
   xmlns:svg="http://www.w3.org/2000/svg"
   xmlns:rdf="http://www.w3.org/1999/02/22-rdf-syntax-ns#"
   xmlns:cc="http://creativecommons.org/ns#"
   xmlns:dc="http://purl.org/dc/elements/1.1/">
  <defs
     id="defs2" />
  <sodipodi:namedview
     id="base"
     pagecolor="#ffffff"
     bordercolor="#666666"
     borderopacity="1.0"
     inkscape:pageopacity="0.0"
     inkscape:pageshadow="2"
     inkscape:zoom="0.49497474"
     inkscape:cx="724.27938"
     inkscape:cy="1488.9649"
     inkscape:document-units="mm"
     inkscape:current-layer="text835"
     inkscape:document-rotation="0"
     showgrid="false"
     fit-margin-top="0"
     fit-margin-left="0"
     fit-margin-right="0"
     fit-margin-bottom="0"
     inkscape:pagecheckerboard="true"
     inkscape:window-width="1920"
     inkscape:window-height="1043"
     inkscape:window-x="2560"
     inkscape:window-y="0"
     inkscape:window-maximized="1" />
  <metadata
     id="metadata5">
    <rdf:RDF>
      <cc:Work
         rdf:about="">
        <dc:format>image/svg+xml</dc:format>
        <dc:type
           rdf:resource="http://purl.org/dc/dcmitype/StillImage" />
        <dc:title />
      </cc:Work>
    </rdf:RDF>
  </metadata>
  <g
     inkscape:label="Ebene 1"
     inkscape:groupmode="layer"
     id="layer1"
     transform="translate(-216.7407,129.81448)">
    <g
       id="g937"
       transform="matrix(9.8376706,0,0,9.8376706,-139.22017,-895.49284)">
      <g
         id="g69548"
         transform="rotate(-90,42.652232,104.81689)">
        <g
           aria-label="nly"
           id="text835"
           style="font-size:10.5833px;line-height:1.25;font-family:Montserrat;-inkscape-font-specification:Montserrat;stroke-width:0.264583">
          <path
             d="m 28.740137,103.57045 c -0.963081,0 -1.714495,0.39159 -2.11666,1.06892 v -1.02658 h -0.719665 v 5.56681 h 0.751415 v -2.92099 c 0,-1.26999 0.751414,-2.01082 1.947327,-2.01082 1.05833,0 1.672161,0.60324 1.672161,1.77799 v 3.15382 h 0.751414 v -3.2279 c 0,-1.59808 -0.93133,-2.38125 -2.285992,-2.38125 z"
             style="-inkscape-font-specification:'Montserrat weight=250';fill:#ffffff"
             id="path873" />
          <path
             d="m 33.068686,109.1796 h 0.751415 v -7.8528 h -0.751415 z"
             style="-inkscape-font-specification:'Montserrat weight=250';fill:#ffffff"
             id="path875" />
          <path
             d="m 39.852572,103.61279 -2.095493,4.73073 -2.095494,-4.73073 h -0.783164 l 2.487076,5.55623 -0.243416,0.53975 c -0.317499,0.6985 -0.656165,0.93133 -1.15358,0.93133 -0.402165,0 -0.740831,-0.14817 -1.015997,-0.42333 l -0.349249,0.56091 c 0.338666,0.33867 0.836081,0.508 1.354663,0.508 0.793747,0 1.386412,-0.34925 1.852077,-1.43933 l 2.783408,-6.23356 z"
             style="-inkscape-font-specification:'Montserrat weight=250';fill:#ffffff"
             id="path878" />
        </g>
        <g
           aria-label="O"
           id="text841"
           style="font-size:12.3472px;line-height:1.25;font-family:Montserrat;-inkscape-font-specification:Montserrat;stroke-width:0.264583">
          <path
             d="m 20.210378,110.58486 c 2.592913,0 4.531423,-1.86442 4.531423,-4.3956 0,-2.53118 -1.93851,-4.3956 -4.531423,-4.3956 -2.617606,0 -4.543769,1.87677 -4.543769,4.3956 0,2.51883 1.926163,4.3956 4.543769,4.3956 z m 0,-0.81491 c -2.086676,0 -3.642424,-1.51871 -3.642424,-3.58069 0,-2.06198 1.555748,-3.58069 3.642424,-3.58069 2.07433,0 3.61773,1.51871 3.61773,3.58069 0,2.06198 -1.5434,3.58069 -3.61773,3.58069 z"
             style="fill:#fdffff;fill-opacity:1"
             id="path882" />
        </g>
        <g
           id="g917"
           transform="matrix(0.00967667,0,0,0.00967667,17.246973,103.21369)"
           style="fill:#00aff0;fill-opacity:1">
          <g
             id="Ebene_2"
             style="fill:#00aff0;fill-opacity:1">
            <g
               id="g889"
               style="fill:#00aff0;fill-opacity:1">
              <path
                 class="st0"
                 d="M 382.29,142.98"
                 id="path877"
                 style="fill:#00aff0;fill-opacity:1" />
              <path
                 class="st1"
                 d="M 382.29,142.98 132.98,522.82 0,522.68 344.3,0 v 0 c 7.88,49.06 20.9,97.68 37.99,142.98"
                 id="path879"
                 style="fill:#00aff0;fill-opacity:1" />
              <path
                 class="st2"
                 d="M 413.28,213.54 208.5,522.92 341.44,523.11 476.47,316.78 v 0 C 452.69,284.29 431.53,249.77 413.28,213.54 v 0"
                 id="path881"
                 style="fill:#00aff0;fill-opacity:1" />
              <path
                 class="st3"
                 d="M 599.38,447.69"
                 id="path883"
                 style="fill:#00aff0;fill-opacity:1" />
              <path
                 class="st3"
                 d="M 518.6,369.16"
                 id="path885"
                 style="fill:#00aff0;fill-opacity:1" />
              <path
                 class="st1"
                 d="M 599.38,447.69 550.13,523.11 417,522.82 518.6,369.15 v 0 c 24.88,28.2 51.89,54.46 80.78,78.54 z"
                 id="path887"
                 style="fill:#00aff0;fill-opacity:1" />
            </g>
          </g>
          <g
             id="Ebene_1"
             class="st4"
             style="fill:#00aff0;fill-opacity:1">
            <path
               class="st5"
               d="m -45.42,426.29 c 0.34,0.34 97.62,1.14 107.04,0.94 0.94,-0.07 1.75,-0.74 2.29,-2.08 0.47,-1.14 1.08,-2.02 1.41,-2.02 0.33,0 0.61,-0.34 0.61,-0.67 0,-0.81 2.76,-4.91 3.56,-5.24 0.27,-0.13 0.47,-0.61 0.47,-1.08 0,-0.74 0.61,-1.61 3.29,-4.84 0.34,-0.47 0.47,-1.01 0.27,-1.21 -0.27,-0.2 -0.07,-0.4 0.34,-0.4 0.47,0 0.81,-0.47 0.81,-1.01 0,-0.47 0.47,-1.21 1.08,-1.55 0.61,-0.34 1.08,-0.87 1.08,-1.21 0.07,-0.54 3.09,-5.58 3.9,-6.32 0.2,-0.2 0.94,-1.41 1.61,-2.69 0.74,-1.28 1.48,-2.49 1.68,-2.69 0.61,-0.54 3.43,-4.64 3.43,-4.98 0,-0.2 1.95,-3.23 4.37,-6.72 2.42,-3.49 4.37,-6.66 4.37,-7.06 0,-0.34 0.2,-0.74 0.54,-0.87 0.54,-0.27 3.5,-4.37 3.5,-4.91 0,-0.2 0.34,-0.74 0.74,-1.21 0.34,-0.47 2.22,-3.23 4.17,-6.19 1.88,-2.96 3.56,-5.51 3.83,-5.71 0.2,-0.2 0.74,-1.14 1.28,-2.15 0.54,-1.01 1.48,-2.49 2.22,-3.16 0.67,-0.74 1.21,-1.55 1.21,-1.68 0,-0.61 12.98,-20.17 13.65,-20.64 0.34,-0.2 0.47,-0.61 0.34,-0.81 -0.07,-0.27 0.27,-1.01 0.87,-1.68 0.61,-0.67 1.61,-2.22 2.35,-3.36 0.67,-1.21 1.48,-2.15 1.82,-2.15 0.27,0 0.4,-0.27 0.13,-0.61 -0.2,-0.34 0.07,-1.01 0.54,-1.55 1.48,-1.48 5.18,-7.13 5.18,-7.87 0,-0.4 0.34,-0.74 0.67,-0.74 0.4,0 0.67,-0.47 0.67,-1.01 0,-0.54 0.34,-1.01 0.67,-1.01 0.4,0 0.67,-0.4 0.67,-0.94 0,-0.54 0.27,-1.08 0.54,-1.21 0.27,-0.13 1.28,-1.41 2.15,-2.89 0.87,-1.48 1.88,-3.03 2.15,-3.36 1.01,-1.21 9.28,-13.92 9.28,-14.19 0,-0.34 4.24,-6.45 5.18,-7.46 0.4,-0.47 1.01,-1.48 1.21,-2.22 0.2,-0.74 0.67,-1.34 1.01,-1.34 0.27,0 0.67,-0.54 0.94,-1.21 0.4,-1.14 1.82,-3.56 2.49,-4.17 0.2,-0.2 2.15,-3.16 4.37,-6.66 2.15,-3.43 4.5,-6.86 5.11,-7.53 0.67,-0.74 1.08,-1.28 0.87,-1.28 -0.2,0 0.74,-1.48 2.02,-3.36 1.28,-1.82 2.35,-3.63 2.35,-4.03 0,-0.34 0.2,-0.67 0.54,-0.67 0.27,0 1.21,-1.34 2.15,-3.03 0.94,-1.68 1.88,-3.03 2.15,-3.03 0.34,0 0.54,-0.4 0.54,-0.87 0,-0.54 0.61,-1.48 1.34,-2.15 0.74,-0.67 1.34,-1.61 1.34,-2.15 0,-0.47 0.34,-0.87 0.67,-0.87 0.4,0 0.67,-0.34 0.67,-0.67 0,-0.74 3.16,-5.85 4.5,-7.26 0.4,-0.4 1.01,-1.41 1.21,-2.15 0.2,-0.74 0.67,-1.34 0.94,-1.34 0.34,0 0.94,-0.87 1.41,-2.02 0.47,-1.14 1.08,-2.02 1.34,-2.02 0.27,0 0.87,-0.87 1.34,-2.02 0.47,-1.14 1.08,-2.02 1.34,-2.02 0.27,0 0.87,-0.94 1.34,-2.02 0.47,-1.14 1.14,-2.02 1.48,-2.02 0.34,0 0.4,-0.34 0.2,-0.67 -0.2,-0.4 -0.2,-0.67 0.13,-0.67 0.27,0 1.41,-1.55 2.55,-3.36 1.08,-1.88 2.22,-3.36 2.55,-3.36 0.27,0 0.4,-0.27 0.2,-0.61 -0.2,-0.27 0.2,-1.08 0.94,-1.75 0.74,-0.67 1.34,-1.55 1.34,-1.95 0,-0.4 0.74,-1.61 1.68,-2.62 0.94,-1.01 1.55,-1.82 1.41,-1.82 -0.34,0 8.87,-14.19 10.35,-15.93 0.34,-0.47 0.67,-1.14 0.67,-1.55 0,-0.34 0.34,-0.67 0.67,-0.67 0.4,0 0.67,-0.47 0.67,-1.01 0,-0.54 0.34,-1.01 0.67,-1.01 0.4,0 0.67,-0.34 0.67,-0.67 0,-0.4 1.08,-2.22 2.35,-4.03 1.27,-1.81 2.35,-3.5 2.35,-3.7 0,-0.2 0.61,-1.01 1.34,-1.82 0.74,-0.81 1.34,-1.88 1.34,-2.35 0,-0.47 0.34,-0.87 0.74,-0.87 0.34,0 0.54,-0.27 0.34,-0.54 -0.2,-0.34 0.27,-0.94 0.94,-1.48 0.67,-0.54 1.14,-1.14 1.01,-1.34 -0.2,-0.27 0.27,-1.01 1.01,-1.68 0.74,-0.67 1.34,-1.48 1.34,-1.75 0,-0.27 2.35,-4.1 5.24,-8.47 2.96,-4.37 8.27,-12.51 11.9,-18.02 3.63,-5.58 6.93,-10.29 7.33,-10.56 0.4,-0.27 0.47,-0.54 0.13,-0.54 -0.34,0 -0.13,-0.54 0.4,-1.21 1.01,-1.21 1.08,-1.75 0.2,-3.83 -2.89,-6.93 -5.04,-12.77 -5.04,-13.51 0,-0.54 -0.27,-0.94 -0.67,-0.94 -0.34,0 -0.61,-0.2 -0.54,-0.54 0.2,-0.87 -1.75,-6.52 -2.42,-6.99 -0.4,-0.27 -0.47,-0.67 -0.2,-0.94 0.27,-0.27 0.2,-0.81 -0.13,-1.21 -0.47,-0.67 -3.97,-10.62 -4.37,-12.71 -0.13,-0.47 -0.4,-1.34 -0.61,-2.02 -0.27,-0.61 -0.67,-1.68 -0.94,-2.35 -0.2,-0.61 -0.47,-1.61 -0.61,-2.15 -0.27,-1.34 -1.61,-5.98 -2.42,-8.14 -0.34,-0.94 -0.67,-2.35 -0.74,-3.16 -0.07,-0.81 -0.27,-1.48 -0.47,-1.48 -0.27,0 -0.47,-0.4 -0.54,-0.87 0,-0.4 -0.2,-1.41 -0.4,-2.15 -0.2,-0.74 -1.01,-3.9 -1.68,-7.06 -0.74,-3.16 -1.34,-5.78 -1.41,-5.92 -0.13,-0.07 -0.2,-0.34 -0.27,-0.67 -0.34,-1.34 -1.28,-5.92 -1.41,-6.52 -0.07,-0.4 -0.2,-0.81 -0.27,-1.01 -0.2,-0.4 -0.54,-2.22 -0.94,-5.38 -0.2,-1.28 -0.54,-2.82 -0.74,-3.43 -0.27,-0.61 -0.4,-1.34 -0.34,-1.68 0.07,-0.34 0,-0.74 -0.07,-0.94 -0.27,-0.67 -0.67,-3.09 -0.94,-5.38 -0.13,-1.28 -0.34,-2.35 -0.4,-2.35 -0.13,0 -0.61,-3.36 -0.74,-5.92 -0.07,-1.01 -0.4,-2.02 -0.74,-2.22 -0.34,-0.2 -0.27,-0.81 0.13,-1.28 1.48,-1.75 -0.54,-1.61 -2.08,0.2 v 0 c -0.87,1.01 -2.22,2.96 -2.96,4.37 -0.74,1.48 -1.95,3.29 -2.69,4.1 -0.74,0.81 -1.95,2.62 -2.69,4.03 -0.74,1.34 -1.82,3.03 -2.42,3.63 -0.54,0.61 -1.61,2.22 -2.35,3.5 -1.48,2.69 -1.68,2.96 -3.97,5.78 -0.94,1.21 -1.68,2.35 -1.68,2.55 0,0.47 -6.66,10.56 -7.33,11.16 -0.2,0.2 -1.01,1.41 -1.68,2.69 -0.74,1.28 -1.48,2.49 -1.68,2.69 -0.47,0.4 -8.27,12.03 -8.81,13.11 m 96.56,112.03 c -0.74,1.14 -1.82,2.76 -2.35,3.56 -0.54,0.81 -1.68,2.55 -2.49,3.83 -1.88,2.82 -2.22,3.36 -5.58,8.2 -1.48,2.15 -2.69,4.03 -2.69,4.24 0,0.21 -0.34,0.67 -0.74,1.14 -0.34,0.47 -4.24,6.25 -8.67,12.91 -4.37,6.66 -8.27,12.44 -8.67,12.91 -0.4,0.47 -0.74,0.94 -0.74,1.14 0,0.61 -4.3,6.79 -4.84,6.99 -0.27,0.13 -0.54,0.67 -0.54,1.21 0,0.54 -0.34,0.94 -0.74,0.94 -0.34,0 -0.54,0.27 -0.34,0.61 0.27,0.34 0.2,0.74 -0.07,0.87 -0.81,0.34 -4.91,6.39 -4.91,7.19 0,0.34 -0.54,1.01 -1.14,1.34 -0.67,0.4 -0.94,0.74 -0.67,0.74 0.27,0 -0.07,0.67 -0.87,1.48 -0.74,0.81 -1.34,1.88 -1.34,2.35 0,0.47 -0.2,0.87 -0.47,0.87 -0.34,0 -1.41,1.55 -2.55,3.43 -1.08,1.88 -2.29,3.77 -2.69,4.24 -1.34,1.61 -3.7,5.04 -3.7,5.45 0,0.27 -0.4,0.87 -0.81,1.34 -1.95,2.15 -2.49,2.89 -2.22,3.16 0.13,0.13 -0.47,1.14 -1.34,2.15 -0.94,1.08 -1.68,2.15 -1.68,2.42 0,0.27 -0.61,1.14 -1.34,2.02 -0.73,0.88 -1.34,1.95 -1.34,2.49 0,0.54 -0.27,0.81 -0.61,0.61 -0.34,-0.2 -0.81,0.34 -1.01,1.28 -0.27,0.94 -0.74,1.68 -1.08,1.68 -0.4,0 -0.67,0.34 -0.67,0.67 0,0.81 -2.76,4.91 -3.5,5.24 -0.34,0.13 -0.54,0.54 -0.54,0.81 0,0.81 -4.17,6.99 -4.84,7.26 -0.27,0.13 -0.54,0.54 -0.54,0.94 0,0.74 -4.1,6.79 -4.84,7.13 -0.34,0.13 -0.54,0.54 -0.54,0.87 0,0.94 -4.91,8 -5.58,8 -0.27,0 -0.4,0.27 -0.13,0.61 0.2,0.34 -0.07,1.01 -0.47,1.55 -0.47,0.47 -2.55,3.43 -4.57,6.59 -2.02,3.16 -3.83,5.85 -4.03,6.05 -0.4,0.4 -2.89,4.03 -3.36,5.04 -1.01,1.95 -31.26,47.13 -31.87,47.53 -0.4,0.27 -0.47,0.54 -0.13,0.54 0.34,0 0.07,0.67 -0.67,1.48 -1.61,1.82 -4.77,6.72 -4.84,7.46 0,0.34 -0.74,1.14 -1.55,1.88 -0.81,0.67 -1.21,1.28 -0.94,1.28 0.34,0 -0.13,0.74 -1.01,1.68 -0.88,0.94 -1.28,1.68 -0.94,1.68 0.34,0 0.27,0.27 -0.07,0.54 -0.94,0.67 -3.83,4.77 -4.98,6.99 -0.54,1.08 -1.21,1.88 -1.55,1.88 -0.27,0 -0.54,0.27 -0.54,0.67 0,0.34 -1.01,2.08 -2.22,3.83 -1.28,1.82 -2.49,3.77 -2.69,4.37 -0.27,0.67 -0.74,1.21 -1.14,1.21 -0.34,0 -0.67,0.47 -0.67,1.01 0,0.54 -0.27,1.01 -0.67,1.01 -0.34,0 -0.67,0.27 -0.67,0.61 0,0.4 -2.29,4.03 -5.11,8.14 -2.76,4.17 -4.91,7.66 -4.77,7.87 0.34,0.27 33.68,0.67 83.44,0.87 22.79,0.13 24.14,0.07 25.21,-1.14 1.21,-1.48 2.55,-3.43 3.23,-4.91 0.27,-0.54 1.01,-1.61 1.68,-2.29 0.61,-0.67 1.01,-1.55 0.81,-1.88 -0.2,-0.27 -0.07,-0.54 0.34,-0.54 0.41,0 1.21,-1.01 1.82,-2.22 0.61,-1.14 1.34,-2.29 1.61,-2.49 0.2,-0.2 1.48,-2.08 2.76,-4.24 1.21,-2.08 2.49,-3.83 2.76,-3.83 0.34,0 0.54,-0.47 0.54,-1.01 0,-0.54 0.34,-1.01 0.74,-1.01 0.34,0 0.54,-0.27 0.34,-0.61 -0.27,-0.34 -0.2,-0.74 0.07,-0.87 0.81,-0.34 3.56,-4.44 3.56,-5.24 0,-0.34 0.34,-0.67 0.67,-0.67 0.4,0 0.67,-0.47 0.67,-1.01 0,-0.54 0.27,-1.01 0.54,-1.01 0.34,0 0.94,-0.67 1.41,-1.55 0.4,-0.81 1.34,-2.42 2.08,-3.5 0.74,-1.14 1.68,-2.69 2.08,-3.56 0.47,-0.81 1.08,-1.48 1.41,-1.48 0.27,0 0.54,-0.4 0.54,-0.87 0,-0.47 0.54,-1.48 1.21,-2.22 0.61,-0.67 1.55,-2.08 2.08,-3.09 0.54,-1.01 1.61,-2.55 2.35,-3.36 0.81,-0.81 1.41,-1.68 1.34,-1.88 -0.07,-0.47 6.05,-9.68 6.66,-9.95 0.27,-0.13 0.47,-0.54 0.47,-0.87 0,-0.54 5.85,-9.88 6.72,-10.69 0.2,-0.2 1.41,-2.02 2.69,-4.03 1.28,-2.02 2.62,-3.9 3.03,-4.17 0.34,-0.27 0.4,-0.54 0.13,-0.54 -0.34,0 -0.13,-0.47 0.34,-1.01 2.08,-2.29 2.42,-2.89 2.08,-3.29 -0.27,-0.2 -0.07,-0.4 0.34,-0.4 0.47,0 0.81,-0.4 0.81,-0.94 0,-0.54 0.27,-1.08 0.54,-1.21 0.34,-0.13 1.95,-2.35 3.56,-4.91 1.61,-2.62 3.16,-4.84 3.43,-4.91 0.27,-0.13 0.54,-0.54 0.54,-0.87 0,-0.34 1.08,-2.15 2.35,-3.97 1.28,-1.82 2.35,-3.5 2.35,-3.77 0,-0.2 0.4,-0.74 0.87,-1.28 0.4,-0.47 2.89,-4.17 5.51,-8.2 2.55,-3.97 4.91,-7.4 5.18,-7.46 0.34,-0.13 0.4,-0.54 0.13,-0.87 -0.2,-0.34 0.13,-0.81 0.67,-1.01 0.61,-0.2 1.08,-0.74 1.08,-1.08 0,-0.4 1.08,-2.22 2.35,-3.97 1.28,-1.82 2.35,-3.43 2.35,-3.5 0,-0.27 11.16,-17.28 11.97,-18.29 0.27,-0.4 1.14,-1.75 1.88,-3.03 0.67,-1.28 1.68,-2.62 2.15,-2.89 0.4,-0.27 0.81,-0.87 0.81,-1.21 0,-0.4 0.74,-1.68 1.68,-2.89 0.94,-1.21 1.68,-2.55 1.68,-2.96 0,-0.47 0.27,-0.81 0.54,-0.81 0.34,0 0.94,-0.74 1.34,-1.61 0.61,-1.34 0.34,-2.02 -1.95,-5.04 -1.41,-1.88 -2.35,-3.43 -2.08,-3.43 0.27,0 0.13,-0.27 -0.27,-0.54 -0.87,-0.54 -6.99,-9.48 -6.99,-10.22 0,-0.27 -0.61,-1.01 -1.34,-1.68 -0.74,-0.67 -1.34,-1.61 -1.34,-2.15 0,-0.47 -0.27,-0.87 -0.67,-0.87 -0.34,0 -0.67,-0.4 -0.67,-0.94 0,-0.54 -0.27,-1.08 -0.54,-1.21 -0.54,-0.2 -6.19,-9.01 -6.19,-9.61 0,-0.2 -0.61,-1.01 -1.34,-1.82 -0.74,-0.81 -1.34,-1.88 -1.34,-2.35 0,-0.47 -0.27,-0.87 -0.67,-0.87 -0.34,0 -0.67,-0.27 -0.67,-0.61 0,-0.4 -0.87,-2.02 -2.02,-3.63 -1.08,-1.68 -2.02,-3.36 -2.02,-3.77 0,-0.4 -0.27,-0.74 -0.61,-0.74 -0.34,0 -0.74,-0.54 -0.94,-1.21 -0.4,-1.14 -2.49,-4.84 -3.16,-5.51 -0.2,-0.2 -1.08,-1.68 -1.95,-3.36 -0.94,-1.68 -1.82,-3.16 -2.02,-3.36 -0.27,-0.2 -0.81,-1.08 -1.21,-2.02 -0.47,-0.94 -2.22,-4.1 -3.9,-7.06 -1.75,-2.96 -3.29,-5.92 -3.5,-6.59 -0.2,-0.61 -0.61,-1.14 -0.87,-1.14 -0.54,0 -2.29,-3.97 -2.08,-4.91 0.18,-1.19 -1.1,-0.25 -2.31,1.63 z m 85.19,129.02 c -0.81,1.08 -1.48,2.22 -1.41,2.42 0,0.27 -0.2,0.67 -0.54,0.87 -0.94,0.67 -8.94,12.71 -8.94,13.51 0,0.34 -0.2,0.67 -0.47,0.67 -0.34,0 -1.61,1.82 -2.89,4.03 -1.28,2.21 -2.55,4.03 -2.82,4.03 -0.34,0 -0.54,0.4 -0.54,0.94 0,0.54 -0.2,1.08 -0.47,1.21 -0.74,0.27 -4.24,5.71 -4.24,6.52 0,0.34 -0.47,0.74 -1.01,1.01 -0.54,0.2 -1.01,0.81 -1.01,1.34 0,0.54 -0.2,1.08 -0.54,1.21 -0.27,0.07 -1.55,1.88 -2.82,3.9 -1.28,2.02 -2.49,3.83 -2.69,4.03 -0.2,0.2 -1.14,1.55 -2.02,3.03 -0.87,1.48 -2.02,3.09 -2.42,3.56 -0.47,0.4 -1.08,1.41 -1.28,2.15 -0.2,0.74 -0.74,1.34 -1.14,1.34 -0.4,0 -0.61,0.2 -0.34,0.4 0.2,0.27 0.07,0.81 -0.4,1.28 -0.47,0.47 -1.21,1.41 -1.61,2.08 -0.47,0.74 -2.22,3.36 -3.9,5.85 -1.68,2.55 -3.03,4.91 -3.03,5.24 0,0.34 -0.27,0.61 -0.54,0.61 -0.34,0 -1.01,0.81 -1.55,1.82 -0.54,1.08 -1.14,2.02 -1.34,2.22 -0.2,0.2 -3.36,4.84 -6.99,10.42 -3.63,5.51 -6.86,10.22 -7.13,10.29 -0.34,0.13 -0.47,0.54 -0.2,0.87 0.2,0.34 0,0.61 -0.34,0.61 -0.4,0 -0.74,0.47 -0.74,1.01 0,0.61 -0.47,1.21 -1.01,1.41 -0.54,0.27 -0.81,0.67 -0.61,1.01 0.2,0.34 0,0.61 -0.34,0.61 -0.4,0 -0.74,0.34 -0.74,0.74 0,0.4 -0.54,1.41 -1.14,2.29 -1.41,1.82 -1.41,1.82 -8.2,12.1 -2.96,4.44 -5.71,8.47 -6.12,8.94 -0.54,0.61 0.4,0.81 4.5,0.87 13.31,0.13 60.58,0.54 80.81,0.61 l 22.39,0.13 1.61,-1.88 c 0.87,-1.08 1.55,-2.22 1.61,-2.49 0,-0.27 0.61,-1.14 1.34,-1.95 0.74,-0.81 1.34,-1.88 1.34,-2.35 0,-0.47 0.34,-0.87 0.74,-0.87 0.34,0 0.54,-0.27 0.34,-0.54 -0.2,-0.34 0.27,-0.94 0.94,-1.48 0.67,-0.54 1.14,-1.14 1.01,-1.34 -0.2,-0.27 0.27,-1.01 1.01,-1.68 0.74,-0.67 1.34,-1.55 1.34,-1.88 0,-0.4 0.74,-1.68 1.68,-2.82 0.87,-1.21 1.41,-2.35 1.21,-2.62 -0.27,-0.2 -0.13,-0.4 0.27,-0.4 0.4,0 2.89,-3.5 5.58,-7.73 2.69,-4.24 5.51,-8.34 6.19,-9.08 0.68,-0.74 1.08,-1.34 0.94,-1.34 -0.54,0 7.73,-12.3 8.61,-12.91 0.4,-0.27 0.47,-0.54 0.2,-0.54 -0.34,0 0.07,-0.81 0.81,-1.75 0.81,-1.01 1.41,-2.22 1.41,-2.76 0,-0.81 -3.03,-4.24 -11.56,-13.11 -1.82,-1.82 -3.23,-3.43 -3.23,-3.56 0,-0.13 -0.67,-1.01 -1.48,-1.82 -1.48,-1.48 -6.19,-6.86 -11.36,-12.91 -1.28,-1.41 -2.89,-3.23 -3.63,-4.03 -1.08,-1.14 -4.57,-5.18 -9.41,-10.89 -1.01,-1.21 -4.17,-5.04 -11.43,-14.05 -9.39,-11.56 -8.51,-10.82 -10.26,-8.4 z"
               id="path892"
               style="fill:#00aff0;fill-opacity:1" />
            <path
               id="line894"
               style="display:inline"
               class="st6"
               d="M 108.71,523.10999 H 108.7" />
          </g>
        </g>
        <g
           aria-label="Sails"
           id="text61309"
           style="font-size:10.758px;line-height:1.25;fill:#00aff0;stroke-width:0.0268949">
          <path
             d="m 50.298605,99.606795 q 0,0.580935 -0.398046,1.065045 -0.387288,0.48411 -1.054284,0.91443 -0.656238,0.41956 -1.516878,0.81761 -0.849883,0.39804 -1.764313,0.80685 0.419562,0.45183 0.903672,0.93594 0.48411,0.47335 0.892915,0.98974 0.419562,0.50562 0.688512,1.03277 0.279708,0.52714 0.279708,1.0758 0,0.60244 -0.21516,1.11883 -0.21516,0.51638 -0.580932,0.9467 -0.365773,0.43032 -0.860641,0.75306 -0.494868,0.3335 -1.065042,0.55942 -0.559416,0.22592 -1.161864,0.34425 -0.59169,0.11834 -1.172622,0.11834 -0.408804,0 -0.817608,-0.15061 -0.408804,-0.15061 -0.742302,-0.44108 -0.333498,-0.27971 -0.548658,-0.69927 -0.204402,-0.41956 -0.204402,-0.95746 0,-0.5379 0.279708,-1.05428 0.279708,-0.52715 0.69927,-0.93595 0.419562,-0.41956 0.925188,-0.667 0.505626,-0.25819 0.957462,-0.25819 0.236676,0 0.462594,0.0323 0.236676,0.0323 0.419562,0.10758 0.182886,0.0753 0.290466,0.2044 0.118338,0.11834 0.118338,0.29046 0,0.0968 -0.02152,0.23668 -0.02152,0.1291 -0.07531,0.1291 -0.08606,0 -0.16137,-0.0215 -0.07531,-0.0323 -0.193644,-0.0646 -0.10758,-0.043 -0.290466,-0.0645 -0.172128,-0.0323 -0.462594,-0.0323 -0.408804,0 -0.817608,0.15061 -0.408804,0.15061 -0.75306,0.39805 -0.333498,0.24743 -0.548658,0.55941 -0.204402,0.31199 -0.204402,0.62397 0,0.31198 0.16137,0.57017 0.172128,0.25819 0.43032,0.44108 0.26895,0.18289 0.602448,0.27971 0.333498,0.0968 0.666996,0.0968 0.344256,0 0.763818,-0.0538 0.43032,-0.043 0.871398,-0.15061 0.441078,-0.0968 0.86064,-0.26895 0.43032,-0.17213 0.75306,-0.40881 0.333498,-0.24743 0.527143,-0.57017 0.204402,-0.3335 0.204402,-0.75306 0,-0.57017 -0.279709,-1.09732 -0.279708,-0.5379 -0.710028,-1.03276 -0.419562,-0.49487 -0.925188,-0.95747 -0.494868,-0.46259 -0.935946,-0.90367 -0.957462,0.44108 -1.850376,0.93595 -0.892914,0.48411 -1.592184,1.08656 -0.688512,0.60244 -1.108074,1.33399 -0.419562,0.72078 -0.419562,1.62446 0,0.54865 0.10758,0.91443 0.10758,0.36577 0.236676,0.60244 0.118338,0.24744 0.225918,0.39805 0.10758,0.15061 0.10758,0.27971 0,0.0968 -0.129096,0.17213 -0.118338,0.0753 -0.32274,0.0753 -0.225918,0 -0.473352,-0.10758 -0.247434,-0.0968 -0.451836,-0.3335 -0.21516,-0.23667 -0.344256,-0.6132 -0.139854,-0.37653 -0.139854,-0.92519 0,-1.03277 0.505626,-1.87189 0.505626,-0.84988 1.323234,-1.54915 0.828366,-0.69927 1.871892,-1.26945 1.054284,-0.58093 2.140842,-1.0758 -0.37653,-0.39804 -0.613206,-0.77457 -0.236676,-0.37653 -0.236676,-0.73155 0,-0.35501 0.182886,-0.75306 0.193644,-0.39804 0.5379,-0.78533 0.344256,-0.387291 0.817608,-0.742305 0.473352,-0.355014 1.043526,-0.613206 0.570174,-0.26895 1.204897,-0.43032 0.64548,-0.16137 1.323234,-0.16137 0.946704,0 1.355508,0.333498 0.419562,0.32274 0.419562,0.925188 z m -5.034745,3.281195 q 0.903672,-0.38729 1.710522,-0.74231 0.817609,-0.36577 1.430815,-0.71002 0.623964,-0.34426 0.989736,-0.68852 0.365772,-0.35501 0.365772,-0.73154 0,-0.09682 -0.03227,-0.204403 -0.03227,-0.118338 -0.150612,-0.21516 -0.118338,-0.09682 -0.37653,-0.16137 -0.247434,-0.06455 -0.677754,-0.06455 -0.333498,0 -0.763818,0.09682 -0.419562,0.08606 -0.860641,0.236676 -0.43032,0.150612 -0.86064,0.365773 -0.419562,0.2044 -0.75306,0.44108 -0.32274,0.23667 -0.527142,0.49487 -0.193644,0.25819 -0.193644,0.50562 0,0.32274 0.193644,0.667 0.193644,0.3335 0.505626,0.71003 z"
             style="font-family:Marguerite;-inkscape-font-specification:Marguerite"
             id="path886" />
          <path
             d="m 57.248255,104.21122 q 0.05379,-0.0753 0.118338,-0.0861 0.07531,-0.0108 0.118338,0.0108 0.05379,0.0215 0.06455,0.0861 0.01076,0.0538 -0.03227,0.11834 -0.193644,0.26895 -0.5379,0.7423 -0.344256,0.47335 -0.763818,1.02201 -0.419562,0.5379 -0.892914,1.10807 -0.473352,0.55942 -0.925188,1.01125 -0.441078,0.45184 -0.839124,0.74231 -0.398046,0.29046 -0.677754,0.29046 -0.365772,0 -0.5379,-0.16137 -0.16137,-0.17213 -0.21516,-0.37653 -0.06455,-0.23667 -0.03227,-0.54866 -0.204402,0.31199 -0.451836,0.54866 -0.21516,0.2044 -0.505626,0.37653 -0.279708,0.16137 -0.59169,0.16137 -0.225918,0 -0.48411,-0.0861 -0.258193,-0.0861 -0.484111,-0.27971 -0.21516,-0.2044 -0.355014,-0.52714 -0.139854,-0.32274 -0.139854,-0.79609 0,-0.39805 0.150612,-0.90368 0.16137,-0.50562 0.441078,-1.02201 0.290467,-0.52714 0.688513,-1.03276 0.408804,-0.50563 0.892914,-0.89292 0.494868,-0.39804 1.054284,-0.63472 0.559416,-0.23668 1.172622,-0.23668 0.311982,0 0.516384,0.0968 0.21516,0.0968 0.344256,0.26895 0.129096,0.17212 0.182886,0.4088 0.06455,0.23668 0.06455,0.51638 0,0.26895 -0.118338,0.59169 0.09682,0.0215 0.204402,0.0646 0.10758,0.043 0.204402,0.0968 0.09682,0.043 0.16137,0.0968 0.06455,0.043 0.06455,0.0861 0,0.0323 -0.193644,0.29047 -0.182886,0.24743 -0.451836,0.6132 -0.258192,0.35502 -0.5379,0.77458 -0.26895,0.41956 -0.451836,0.77457 -0.182886,0.34426 -0.204402,0.58094 -0.02152,0.23667 0.225918,0.23667 0.182886,0 0.48411,-0.24743 0.311982,-0.25819 0.677754,-0.64548 0.37653,-0.39805 0.774576,-0.8714 0.398046,-0.48411 0.75306,-0.9467 0.355014,-0.4626 0.634722,-0.83913 0.290466,-0.38729 0.43032,-0.58093 z m -6.605412,4.5076 q 0.279708,0 0.59169,-0.22592 0.311982,-0.22591 0.634722,-0.58093 0.32274,-0.35501 0.634722,-0.78533 0.32274,-0.44108 0.613206,-0.86064 -0.08606,-0.0968 -0.16137,-0.19365 -0.06455,-0.0968 -0.06455,-0.11833 0,-0.0215 0.139854,-0.17213 0.150612,-0.16137 0.32274,-0.40881 0.182886,-0.24743 0.333498,-0.55941 0.150612,-0.32274 0.150612,-0.67776 0,-0.24743 -0.10758,-0.39804 -0.09682,-0.16137 -0.32274,-0.16137 -0.5379,0 -1.054284,0.38729 -0.516384,0.37653 -0.946704,0.9467 -0.419562,0.57017 -0.731544,1.23717 -0.301224,0.667 -0.43032,1.23717 -0.129096,0.57017 -0.04303,0.95746 0.08606,0.37653 0.441078,0.37653 z"
             style="font-family:Marguerite;-inkscape-font-specification:Marguerite"
             id="path888" />
          <path
             d="m 59.507421,101.64006 q -0.08606,0.0645 -0.311982,0.10758 -0.21516,0.043 -0.441078,0 -0.225918,-0.0538 -0.408804,-0.22592 -0.172128,-0.17213 -0.172128,-0.52714 0,-0.25819 0.07531,-0.43032 0.07531,-0.17213 0.193644,-0.27971 0.129096,-0.10758 0.290466,-0.15061 0.16137,-0.043 0.333498,-0.043 0.32274,0 0.473352,0.2044 0.16137,0.2044 0.193644,0.47335 0.04303,0.26895 -0.02152,0.52714 -0.06455,0.24744 -0.204402,0.34426 z m 0.677754,2.57116 q 0.05379,-0.0753 0.118338,-0.0861 0.07531,-0.0108 0.118338,0.0108 0.05379,0.0215 0.06455,0.0861 0.01076,0.0538 -0.03227,0.11834 -0.193644,0.26895 -0.5379,0.7423 -0.344256,0.47335 -0.763818,1.02201 -0.419562,0.5379 -0.892914,1.10807 -0.462594,0.55942 -0.91443,1.01125 -0.451836,0.45184 -0.849882,0.74231 -0.398046,0.29046 -0.666996,0.29046 -0.333498,0 -0.505626,-0.11834 -0.172128,-0.12909 -0.258192,-0.2797 -0.09682,-0.18289 -0.10758,-0.40881 0,-0.29046 0.204402,-0.71003 0.193644,-0.43032 0.494868,-0.92518 0.311982,-0.49487 0.656238,-1.03277 0.355014,-0.54866 0.656238,-1.06504 0.311982,-0.51639 0.505626,-0.97898 0.204402,-0.47335 0.204402,-0.82837 0,-0.0538 0.150612,-0.0645 0.16137,-0.0108 0.344256,0.043 0.182886,0.0538 0.333498,0.19364 0.16137,0.13985 0.16137,0.39805 0,0.32274 -0.225918,0.80685 -0.225918,0.48411 -0.548658,1.02201 -0.311982,0.5379 -0.656238,1.08655 -0.344256,0.5379 -0.59169,0.97898 -0.247434,0.43032 -0.333498,0.69927 -0.08606,0.26895 0.118338,0.26895 0.182886,0 0.48411,-0.24743 0.311982,-0.25819 0.677754,-0.64548 0.37653,-0.39805 0.774576,-0.8714 0.398046,-0.48411 0.75306,-0.9467 0.355014,-0.4626 0.634722,-0.83913 0.290466,-0.38729 0.43032,-0.58093 z"
             style="font-family:Marguerite;-inkscape-font-specification:Marguerite"
             id="path890" />
          <path
             d="m 64.918695,104.21122 q 0.05379,-0.0753 0.118338,-0.0861 0.07531,-0.0108 0.118338,0.0108 0.05379,0.0215 0.06455,0.0861 0.01076,0.0538 -0.03227,0.11834 -0.193644,0.26895 -0.527142,0.7423 -0.32274,0.47335 -0.742302,1.02201 -0.419562,0.5379 -0.903672,1.10807 -0.48411,0.55942 -0.989736,1.01125 -0.494868,0.45184 -0.989736,0.74231 -0.48411,0.29046 -0.91443,0.29046 -0.548658,0 -0.871398,-0.17213 -0.32274,-0.18288 -0.494868,-0.46259 -0.16137,-0.29047 -0.21516,-0.64548 -0.05379,-0.35501 -0.05379,-0.69927 0,-0.35501 0.129096,-0.91443 0.139854,-0.55942 0.37653,-1.23717 0.247434,-0.67775 0.580932,-1.42006 0.344256,-0.7423 0.75306,-1.46308 0.408804,-0.73155 0.882156,-1.38779 0.473352,-0.65623 0.978978,-1.151103 0.516384,-0.505626 1.054284,-0.796092 0.5379,-0.301224 1.0758,-0.301224 0.150612,0 0.311982,0.04303 0.172128,0.03227 0.301224,0.139854 0.139854,0.10758 0.225918,0.290466 0.08606,0.172128 0.08606,0.451836 0,0.580931 -0.43032,1.387781 -0.43032,0.80685 -1.161864,1.71052 -0.731544,0.90368 -1.699764,1.83962 -0.96822,0.93595 -2.033262,1.78583 -0.118338,0.45184 -0.139854,0.83912 -0.02152,0.37653 0.07531,0.65624 0.09682,0.27971 0.311982,0.44108 0.21516,0.15061 0.59169,0.15061 0.333498,0 0.731544,-0.24743 0.398046,-0.25819 0.80685,-0.64548 0.419562,-0.39805 0.828366,-0.8714 0.408804,-0.48411 0.75306,-0.9467 0.355014,-0.4626 0.623964,-0.83913 0.279708,-0.38729 0.419562,-0.58093 z m -0.247434,-4.873375 q -0.26895,0 -0.64548,0.279708 -0.365772,0.26895 -0.796092,0.731547 -0.419562,0.46259 -0.871398,1.08656 -0.441078,0.6132 -0.849882,1.30171 -0.408804,0.67776 -0.763818,1.39854 -0.355014,0.71003 -0.59169,1.36627 0.796092,-0.59169 1.495362,-1.2802 0.710028,-0.69927 1.280202,-1.37703 0.570174,-0.68851 0.989736,-1.32323 0.419562,-0.63472 0.656238,-1.11883 0.236676,-0.484113 0.26895,-0.774579 0.03227,-0.290466 -0.172128,-0.290466 z"
             style="font-family:Marguerite;-inkscape-font-specification:Marguerite"
             id="path893" />
          <path
             d="m 69.340218,104.21122 q 0.05379,-0.0753 0.118338,-0.0861 0.06455,-0.0108 0.10758,0.0108 0.05379,0.0215 0.06455,0.0861 0.02152,0.0538 -0.02152,0.11834 -0.193644,0.26895 -0.516384,0.7423 -0.311982,0.47335 -0.720786,1.02201 -0.398046,0.5379 -0.871398,1.10807 -0.473352,0.55942 -0.978978,1.01125 -0.505626,0.45184 -1.032768,0.74231 -0.527142,0.29046 -1.032768,0.29046 h -0.16137 q -0.355014,0 -0.613206,-0.11834 -0.258192,-0.11833 -0.43032,-0.30122 -0.16137,-0.18289 -0.236676,-0.41956 -0.08606,-0.23668 -0.08606,-0.4626 0,-0.2044 0.06455,-0.30122 0.06455,-0.0968 0.139854,-0.0968 0.07531,-0.0108 0.139854,0.0753 0.06455,0.0753 0.06455,0.22592 0,0.29047 0.182886,0.5379 0.193644,0.23668 0.64548,0.23668 0.462594,0 0.677754,-0.32274 0.21516,-0.32274 0.26895,-0.82837 0.05379,-0.51638 -0.01076,-1.14035 -0.05379,-0.63472 -0.16137,-1.24792 -0.09682,-0.62397 -0.193644,-1.15111 -0.08606,-0.5379 -0.08606,-0.84988 0,-0.35502 0.16137,-0.667 0.172128,-0.31198 0.43032,-0.5379 0.258192,-0.23667 0.580932,-0.36577 0.32274,-0.1291 0.634722,-0.1291 0.150612,0 0.247434,0.0753 0.09682,0.0646 0.09682,0.15061 0,0.1291 -0.129096,0.29047 -0.129096,0.15061 -0.279708,0.34425 -0.150612,0.19365 -0.279708,0.44108 -0.129096,0.24744 -0.129096,0.57018 0,0.48411 0.08606,0.95746 0.08606,0.47335 0.182886,0.9467 0.10758,0.4626 0.193644,0.92519 0.08606,0.45184 0.08606,0.91443 0,0.18289 -0.03227,0.38729 -0.02152,0.19364 -0.07531,0.36577 0.247434,-0.2044 0.516384,-0.50563 0.279708,-0.30122 0.570174,-0.64548 0.290466,-0.34425 0.570174,-0.71002 0.279708,-0.36578 0.516384,-0.68852 0.247434,-0.33349 0.43032,-0.59169 0.193644,-0.25819 0.301224,-0.4088 z"
             style="font-family:Marguerite;-inkscape-font-specification:Marguerite"
             id="path895" />
        </g>
      </g>
    </g>
  </g>
  <style
     type="text/css"
     id="style875">
	.st0{fill:#E30613;stroke:#009640;stroke-width:0;stroke-linecap:round;stroke-linejoin:round;}
	.st1{fill:#D41216;}
	.st2{fill:#D41216;stroke:#009640;stroke-width:0;stroke-linecap:round;stroke-linejoin:round;}
	.st3{fill:none;stroke:#009640;stroke-width:0;stroke-linecap:round;stroke-linejoin:round;}
	.st4{display:none;}
	.st5{display:inline;fill:#E73D26;}
	.st6{display:inline;fill:none;}
</style>
</svg>
